<?xml version="1.0" encoding="UTF-8" standalone="no"?>
<svg
   xmlns:dc="http://purl.org/dc/elements/1.1/"
   xmlns:cc="http://creativecommons.org/ns#"
   xmlns:rdf="http://www.w3.org/1999/02/22-rdf-syntax-ns#"
   xmlns:svg="http://www.w3.org/2000/svg"
   xmlns="http://www.w3.org/2000/svg"
   id="svg8"
   version="1.1"
   viewBox="0 0 63.610416 26.484289"
   height="26.484289mm"
   width="63.610416mm">
  <defs
     id="defs2" />
  <metadata
     id="metadata5">
    <rdf:RDF>
      <cc:Work
         rdf:about="">
        <dc:format>image/svg+xml</dc:format>
        <dc:type
           rdf:resource="http://purl.org/dc/dcmitype/StillImage" />
        <dc:title></dc:title>
      </cc:Work>
    </rdf:RDF>
  </metadata>
  <g
     transform="translate(-18.24929,-38.131592)"
     id="layer1">
    <text
       id="text817"
       y="52.449402"
       x="27.970238"
       style="font-style:normal;font-variant:normal;font-weight:normal;font-stretch:normal;font-size:4.23333311px;line-height:1.25;font-family:sans-serif;-inkscape-font-specification:sans-serif;letter-spacing:0px;word-spacing:0px;fill:#000000;fill-opacity:1;stroke:none;stroke-width:0.26458332"
       xml:space="preserve"><tspan
         style="stroke-width:0.26458332"
         y="52.449402"
         x="27.970238"
         id="tspan815">SQL + Python = </tspan></text>
    <path
       id="path832"
       d="m 67.638055,54.376069 c -0.351422,-0.338459 -0.629553,-0.566384 -1.416387,-1.16071 -1.062026,-0.802191 -1.305344,-1.007049 -1.633308,-1.375127 -0.475,-0.533118 -0.690623,-1.004822 -0.726243,-1.588754 -0.04905,-0.802948 0.329707,-1.518041 0.992482,-1.874132 0.493285,-0.26503 1.142352,-0.320492 1.673354,-0.142985 0.528637,0.176721 0.878654,0.489527 1.179108,1.053752 0.06391,0.119955 0.128238,0.2181 0.143034,0.2181 0.01475,0 0.05818,-0.06249 0.09646,-0.138862 0.25527,-0.509412 0.654697,-0.89959 1.110898,-1.085164 0.396197,-0.161165 0.900357,-0.195396 1.31464,-0.08926 0.642066,0.164486 1.115698,0.559796 1.339537,1.118035 0.122994,0.306702 0.17766,0.762377 0.132206,1.101979 -0.06274,0.468458 -0.354172,1.038973 -0.761057,1.489562 -0.286946,0.317766 -0.540986,0.53158 -1.510244,1.271111 -0.876161,0.668493 -1.099415,0.854603 -1.465235,1.221408 l -0.22027,0.220859 z"
       style="fill:#ee407a;stroke-width:0.01915347" />
  </g>
</svg>
