<?xml version="1.0" encoding="UTF-8" standalone="no"?>
<svg
   xmlns:dc="http://purl.org/dc/elements/1.1/"
   xmlns:cc="http://creativecommons.org/ns#"
   xmlns:rdf="http://www.w3.org/1999/02/22-rdf-syntax-ns#"
   xmlns:svg="http://www.w3.org/2000/svg"
   xmlns="http://www.w3.org/2000/svg"
   xmlns:sodipodi="http://sodipodi.sourceforge.net/DTD/sodipodi-0.dtd"
   xmlns:inkscape="http://www.inkscape.org/namespaces/inkscape"
   id="bf74385c-6483-43b7-aa3a-5b28e4e3e168"
   data-name="Layer 1"
   width="491"
   height="459.73257"
   viewBox="0 0 491 459.7326"
   version="1.1"
   sodipodi:docname="undraw_data_reports_706v.svg"
   inkscape:version="0.92.3 (2405546, 2018-03-11)">
  <metadata
     id="metadata71">
    <rdf:RDF>
      <cc:Work
         rdf:about="">
        <dc:format>image/svg+xml</dc:format>
        <dc:type
           rdf:resource="http://purl.org/dc/dcmitype/StillImage" />
        <dc:title></dc:title>
      </cc:Work>
    </rdf:RDF>
  </metadata>
  <defs
     id="defs69" />
  <sodipodi:namedview
     pagecolor="#ffffff"
     bordercolor="#666666"
     borderopacity="1"
     objecttolerance="10"
     gridtolerance="10"
     guidetolerance="10"
     inkscape:pageopacity="0"
     inkscape:pageshadow="2"
     inkscape:window-width="1920"
     inkscape:window-height="1061"
     id="namedview67"
     showgrid="false"
     fit-margin-top="0"
     fit-margin-left="0"
     fit-margin-right="0"
     fit-margin-bottom="0"
     inkscape:zoom="1.2378867"
     inkscape:cx="155.16068"
     inkscape:cy="238.59466"
     inkscape:window-x="0"
     inkscape:window-y="0"
     inkscape:window-maximized="0"
     inkscape:current-layer="bf74385c-6483-43b7-aa3a-5b28e4e3e168" />
  <path
     d="M 483.5,459.73258 H 7.5 a 7.5082,7.5082 0 0 1 -7.5,-7.5 v -207 a 7.5082,7.5082 0 0 1 7.5,-7.5 h 476 a 7.5082,7.5082 0 0 1 7.5,7.5 v 207 a 7.5082,7.5082 0 0 1 -7.5,7.5 z m -476,-219 a 4.50492,4.50492 0 0 0 -4.5,4.5 v 207 a 4.50491,4.50491 0 0 0 4.5,4.5 h 476 a 4.50491,4.50491 0 0 0 4.5,-4.5 v -207 a 4.50492,4.50492 0 0 0 -4.5,-4.5 z"
     id="path26"
     inkscape:connector-curvature="0"
     style="fill:#e6e6e6" />
  <path
     d="m 27,263.23258 a 4.5,4.5 0 0 0 0,9 h 63 a 4.5,4.5 0 0 0 0,-9 z"
     id="path28"
     inkscape:connector-curvature="0"
     style="fill:#e6e6e6" />
  <path
     d="M 458.29035,294.52773 V 377.9773 H 33.45958 v -43.93766 c 2.94182,-1.88912 5.90143,-3.76937 8.88768,-5.58753 12.75379,-7.80481 26.40529,-15.10408 41.28325,-17.80921 a 62.31953,62.31953 0 0 1 21.31262,-0.26606 c 7.46567,1.23282 14.61134,3.80489 21.68594,6.38578 6.9768,2.55431 13.9714,5.18841 21.2682,6.66959 a 62.2716,62.2716 0 0 0 21.5704,0.4257 c 13.66035,-2.04876 26.49415,-7.53875 39.27457,-12.50543 12.86049,-4.99332 26.112,-9.7117 40.03011,-10.33255 13.74031,-0.62085 27.31181,2.62528 40.35,6.65184 26.58306,8.20394 53.726,20.37239 81.87329,12.02652 28.58273,-8.46112 54.87248,-32.8867 86.54811,-25.64059 a 1.19244,1.19244 0 0 1 0.7466,0.47003 z"
     id="path30"
     inkscape:connector-curvature="0"
     style="fill:#e6e6e6" />
  <path
     d="m 458.29035,295.9823 a 1.28259,1.28259 0 0 1 -1.45455,0.63855 47.36842,47.36842 0 0 0 -11.5121,-1.18843 c -31.15722,0.54988 -55.11271,25.63172 -85.57811,29.38339 -27.46769,3.37913 -53.32114,-9.97776 -79.148,-16.95775 -13.419,-3.62749 -27.25483,-5.55207 -41.06406,-3.08649 -13.70274,2.439 -26.563,8.0443 -39.4764,13.01992 -12.43452,4.78929 -25.35683,9.2416 -38.82014,9.46333 -14.80256,0.24831 -28.13287,-5.85365 -41.86225,-10.50106 -7.13963,-2.42125 -14.46553,-4.337 -22.03086,-4.52323 a 66.64492,66.64492 0 0 0 -21.71164,3.36138 c -14.58971,4.63858 -27.7337,12.90455 -40.53188,21.11737 a 1.13679,1.13679 0 0 1 -0.75385,0.204 1.37378,1.37378 0 0 1 -0.58534,-2.50109 l 0.58534,-0.37255 c 2.93567,-1.88912 5.8891,-3.76937 8.86911,-5.58753 12.72717,-7.80481 26.35017,-15.10408 41.19707,-17.80921 a 62.06159,62.06159 0 0 1 21.26813,-0.26606 c 7.45008,1.23282 14.58083,3.80489 21.64067,6.38578 6.96223,2.55431 13.94222,5.18841 21.22379,6.66959 a 62.014,62.014 0 0 0 21.52537,0.4257 c 13.63183,-2.04876 26.43884,-7.53875 39.19258,-12.50543 12.83364,-4.99332 26.05747,-9.7117 39.94654,-10.33255 13.71162,-0.62085 27.25479,2.62528 40.26577,6.65184 26.52756,8.20394 53.61383,20.37239 81.70236,12.02652 28.52306,-8.46112 54.75793,-32.8867 86.36743,-25.64059 a 1.1897,1.1897 0 0 1 0.745,0.47 1.36658,1.36658 0 0 1 2e-5,1.4546 z"
     id="path32"
     inkscape:connector-curvature="0"
     style="fill:#6c63ff" />
  <circle
     cx="91.995758"
     cy="311.45892"
     r="6.2083802"
     id="circle34"
     style="fill:#6c63ff" />
  <circle
     cx="248.97919"
     cy="303.47672"
     r="6.2083802"
     id="circle36"
     style="fill:#6c63ff" />
  <circle
     cx="440.55212"
     cy="295.49451"
     r="6.2083802"
     id="circle38"
     style="fill:#6c63ff" />
  <path
     d="m 88.5,413.23258 a 4.5,4.5 0 0 0 0,9 h 63 a 4.5,4.5 0 0 0 0,-9 z"
     id="path40"
     inkscape:connector-curvature="0"
     style="fill:#e6e6e6" />
  <circle
     cx="48"
     cy="417.2326"
     r="17"
     id="circle42"
     style="fill:#6c63ff" />
  <path
     d="m 240.5,413.23258 a 4.5,4.5 0 0 0 0,9 h 63 a 4.5,4.5 0 0 0 0,-9 z"
     id="path44"
     inkscape:connector-curvature="0"
     style="fill:#e6e6e6" />
  <circle
     cx="200"
     cy="417.2326"
     r="17"
     id="circle46"
     style="fill:#6c63ff" />
  <path
     d="m 392.5,413.23258 a 4.5,4.5 0 0 0 0,9 h 63 a 4.5,4.5 0 0 0 0,-9 z"
     id="path48"
     inkscape:connector-curvature="0"
     style="fill:#e6e6e6" />
  <circle
     cx="352"
     cy="417.2326"
     r="17"
     id="circle50"
     style="fill:#6c63ff" />
  <path
     id="e1cfef3e-7788-4f0f-b252-d185c9336b04"
     data-name="Path 78"
     d="M 450.919,181.842 H 216.081 c -4.578,0 -8.288,-2.643 -8.293,-5.9 V 124.9 c 0.005,-3.257 3.715,-5.9 8.293,-5.9 h 234.838 c 4.578,0 8.288,2.643 8.293,5.9 v 51.041 c -0.004,3.25701 -3.715,5.897 -8.293,5.901 z M 216.081,121.358 c -2.747,0 -4.973,1.586 -4.976,3.54 v 51.041 c 0,1.954 2.229,3.538 4.976,3.54 h 234.838 c 2.747,0 4.973,-1.586 4.976,-3.54 V 124.9 c 0,-1.954 -2.229,-3.538 -4.976,-3.54 z"
     inkscape:connector-curvature="0"
     style="fill:#e6e6e6" />
  <path
     d="m 269.17905,148.00717 a 5.00589,5.00589 0 0 0 -5,5 v 35 a 5.00589,5.00589 0 0 0 5,5 h 179 a 5.00589,5.00589 0 0 0 5,-5 v -35 a 5.00588,5.00588 0 0 0 -5,-5 z"
     id="path53"
     inkscape:connector-curvature="0"
     style="fill:#6c63ff" />
  <circle
     cx="294.17908"
     cy="171.00717"
     r="11"
     id="circle55"
     style="fill:#ffffff" />
  <path
     d="m 344.31094,166.23258 a 4.5,4.5 0 0 0 0,9 h 63 a 4.5,4.5 0 0 0 0,-9 z"
     id="path57"
     inkscape:connector-curvature="0"
     style="fill:#ffffff" />
  <path
     id="b00e8b21-64f0-4b6c-8490-a93637cb24e1"
     data-name="Path 78"
     d="M 274.919,62.842 H 40.081 c -4.578,0 -8.288,-2.643 -8.293,-5.9 V 5.9 C 31.793,2.643 35.503,0 40.081,0 h 234.838 c 4.578,0 8.288,2.643 8.293,5.9 v 51.041 c -0.004,3.25701 -3.715,5.897 -8.293,5.901 z M 40.081,2.358 c -2.747,0 -4.973,1.586 -4.976,3.54 v 51.041 c 0,1.954 2.229,3.538 4.976,3.54 h 234.838 c 2.747,0 4.973,-1.586 4.976,-3.54 V 5.9 c 0,-1.954 -2.229,-3.538 -4.976,-3.54 z"
     inkscape:connector-curvature="0"
     style="fill:#e6e6e6" />
  <path
     d="m 93.17905,29.00717 a 5.00589,5.00589 0 0 0 -5,5 v 35 a 5.00589,5.00589 0 0 0 5,5 h 179 a 5.00589,5.00589 0 0 0 5,-5 v -35 a 5.00588,5.00588 0 0 0 -5,-5 z"
     id="path60"
     inkscape:connector-curvature="0"
     style="fill:#6c63ff" />
  <circle
     cx="118.17905"
     cy="52.007168"
     r="11"
     id="circle62"
     style="fill:#ffffff" />
  <path
     d="m 168.31094,47.23258 a 4.5,4.5 0 0 0 0,9 h 63 a 4.5,4.5 0 0 0 0,-9 z"
     id="path64"
     inkscape:connector-curvature="0"
     style="fill:#ffffff" />
</svg>
